<?xml version="1.0" standalone="no"?>
<!DOCTYPE svg PUBLIC "-//W3C//DTD SVG 20010904//EN"
 "http://www.w3.org/TR/2001/REC-SVG-20010904/DTD/svg10.dtd">
<svg version="1.0" xmlns="http://www.w3.org/2000/svg"
 width="540.000000pt" height="400.000000pt" viewBox="0 0 540.000000 400.000000"
 preserveAspectRatio="xMidYMid meet">
<metadata>
Created by potrace 1.16, written by Peter Selinger 2001-2019
</metadata>
<g transform="translate(0.000000,400.000000) scale(0.100000,-0.100000)"
fill="#000000" stroke="none">
<path d="M3297 3357 c-3 -8 -3 -65 0 -128 4 -114 4 -115 -20 -128 -14 -7 -31
-10 -38 -6 -9 6 -11 3 -6 -8 5 -13 1 -17 -19 -17 -14 0 -23 4 -19 9 6 11 -29
34 -37 25 -3 -2 -17 0 -32 5 -17 7 -26 7 -26 1 0 -46 -127 66 -166 146 -28 58
-46 67 -65 33 -33 -62 44 -250 106 -262 19 -3 25 -1 21 8 -6 17 54 28 85 16
l24 -10 -23 0 c-37 -1 -14 -21 24 -21 34 0 35 -1 20 -21 -8 -12 -12 -27 -9
-35 4 -11 11 -11 41 2 21 9 47 18 58 19 19 3 20 1 10 -19 -6 -12 -19 -30 -29
-41 -9 -11 -30 -36 -46 -55 -24 -29 -31 -32 -44 -22 -18 15 -30 2 -21 -23 6
-15 4 -16 -15 -6 -17 10 -22 9 -27 -4 -3 -8 -10 -13 -14 -10 -4 3 -10 -4 -13
-15 -3 -11 -1 -20 3 -20 5 0 12 -9 15 -20 4 -11 11 -18 16 -15 5 4 9 1 9 -6 0
-7 3 -9 7 -5 5 4 0 13 -10 21 -15 11 -15 13 -2 18 10 4 17 -2 21 -18 3 -14 10
-25 15 -25 5 0 7 11 3 24 -9 37 19 38 59 1 20 -18 39 -30 42 -27 3 4 3 -1 -1
-11 -6 -16 -8 -15 -34 3 -36 26 -36 26 -53 -10 -18 -35 -7 -47 40 -45 23 2 30
-2 26 -11 -3 -8 -9 -14 -15 -14 -5 0 -6 6 -2 13 6 9 4 9 -6 0 -12 -11 -11 -15
6 -28 10 -8 15 -15 10 -15 -5 0 -1 -9 9 -20 21 -23 13 -39 -9 -21 -8 7 -21 9
-27 5 -9 -5 -11 -1 -7 14 3 11 -1 31 -9 42 -14 19 -23 22 -65 18 l-50 -5 6 42
c5 33 3 47 -12 65 -18 23 -19 23 -67 7 -27 -10 -57 -17 -68 -17 -15 0 -17 -4
-11 -17 11 -25 7 -82 -7 -99 -7 -8 -9 -27 -5 -47 l6 -32 -17 25 c-9 14 -22 28
-27 32 -8 5 -8 8 0 8 12 0 39 79 29 88 -3 3 -15 1 -25 -6 -12 -7 -20 -8 -20
-2 0 5 -7 10 -16 10 -8 0 -12 -4 -9 -10 3 -5 1 -10 -4 -10 -6 0 -11 5 -11 10
0 6 -7 10 -16 10 -8 0 -13 -3 -11 -7 3 -5 -51 -9 -119 -10 -68 -1 -176 -9
-241 -18 -64 -8 -132 -15 -149 -15 -18 0 -45 -5 -61 -12 -15 -6 -79 -12 -140
-12 -74 -1 -117 -6 -125 -14 -9 -9 -9 -12 2 -12 11 -1 10 -4 -4 -11 -14 -9
-20 -8 -27 2 -6 11 -11 11 -21 1 -15 -15 -32 -16 -23 -2 7 11 -113 7 -265 -9
-55 -6 -92 -5 -104 1 -12 6 -108 7 -268 3 -164 -5 -248 -4 -244 3 8 13 -36 21
-63 10 -12 -4 -20 -4 -17 0 6 10 -199 15 -396 10 -35 -1 -79 -1 -98 0 -19 2
-62 2 -95 1 -33 -1 -106 2 -162 6 l-101 7 -1 -136 -1 -136 32 -1 c18 0 62 -2
98 -4 37 -2 70 1 77 7 23 19 15 -13 -9 -33 -26 -24 -37 -24 -54 -1 -8 10 -13
12 -14 4 0 -10 -7 -10 -32 1 -20 8 -43 10 -58 6 -14 -4 -19 -7 -11 -8 8 -1 11
-4 7 -8 -4 -5 -14 1 -22 11 -12 17 -14 -5 -14 -181 l0 -201 43 -6 c122 -19
127 -19 133 -1 4 10 1 21 -7 26 -11 7 -11 9 4 9 9 0 17 7 17 15 0 8 5 15 10
15 6 0 10 7 10 16 0 11 -6 14 -17 10 -13 -4 -12 -1 4 11 31 25 42 102 26 173
-7 34 -9 67 -4 85 l8 30 6 -30 c4 -16 9 -50 12 -75 2 -25 8 -57 13 -70 11 -30
4 -110 -11 -128 -8 -10 -7 -16 2 -21 9 -6 9 -15 1 -35 -7 -18 -7 -33 0 -46 13
-24 13 -33 0 -25 -14 8 -13 -8 1 -22 7 -7 8 -19 3 -30 -10 -23 -12 -73 -2 -67
4 3 8 -1 8 -10 0 -8 5 -16 11 -18 8 -3 6 -9 -4 -20 -14 -14 -15 -18 -2 -28 12
-10 18 -10 31 1 13 11 14 9 8 -15 -5 -19 -2 -31 7 -37 12 -7 11 -11 -3 -26
-14 -13 -18 -14 -18 -3 0 7 -3 11 -6 8 -3 -4 2 -21 12 -40 9 -18 13 -30 9 -26
-5 4 -14 3 -22 -3 -10 -9 -13 -8 -13 3 0 8 -9 23 -19 32 -11 10 -18 27 -16 37
7 37 -4 45 -63 47 -31 1 -74 3 -96 5 -70 8 -76 3 -76 -69 0 -54 3 -64 18 -64
9 0 24 4 32 9 8 6 18 7 24 4 5 -4 1 -10 -10 -14 -16 -7 -16 -8 6 -7 49 2 126
-5 98 -9 -16 -2 -28 -8 -28 -13 0 -10 -40 -7 -58 4 -7 4 -15 1 -18 -9 -9 -22
1 -28 25 -15 15 8 21 8 21 0 0 -13 63 -3 68 11 2 4 17 5 34 2 20 -4 33 -1 39
8 8 12 11 12 19 -1 5 -8 10 -10 10 -4 0 18 91 23 98 6 3 -8 -1 -18 -9 -23 -11
-7 -11 -9 3 -9 11 0 20 -11 24 -27 3 -16 10 -42 15 -60 14 -43 13 -142 -1
-178 -13 -35 -31 -49 -42 -32 -4 7 -8 8 -8 2 0 -25 17 -34 54 -28 47 7 54 25
60 136 5 94 15 147 27 147 5 0 9 -10 9 -22 0 -13 8 -43 16 -68 9 -25 18 -77
21 -117 3 -64 2 -73 -17 -83 -14 -8 -20 -8 -20 0 0 6 -4 8 -10 5 -5 -3 -10 1
-10 9 0 26 -18 18 -35 -14 -9 -16 -18 -30 -21 -30 -3 0 -3 4 0 9 8 13 -24 23
-38 12 -7 -6 -18 -6 -26 -1 -9 6 -18 3 -26 -8 -7 -10 -8 -19 -3 -23 5 -3 -32
-4 -81 -3 -50 1 -96 6 -103 12 -9 8 -15 4 -23 -12 -8 -17 -8 -23 2 -23 7 0 12
3 11 6 -1 3 3 6 8 6 6 0 9 -2 8 -5 -1 -3 14 -4 33 -2 19 2 34 0 34 -6 0 -6 -9
-8 -21 -5 -25 7 -43 -15 -27 -34 7 -9 15 -10 29 -2 15 7 19 6 19 -5 0 -8 -5
-18 -10 -21 -6 -3 -10 -2 -10 3 0 6 -9 8 -20 5 -15 -4 -21 1 -26 22 l-7 28
-13 -26 c-10 -19 -19 -24 -36 -20 -14 3 -19 1 -11 -4 8 -6 6 -15 -9 -33 -11
-14 -17 -20 -14 -14 3 7 -1 17 -9 24 -23 19 -18 30 20 46 42 17 48 18 39 2 -4
-7 -3 -8 5 -4 17 11 2 28 -19 21 -11 -3 -20 0 -24 10 -8 21 -23 19 -37 -6 -8
-15 -8 -19 0 -15 6 4 11 3 11 -2 0 -6 -6 -12 -13 -15 -15 -6 -41 19 -26 27 5
2 4 3 -3 2 -15 -3 -24 -66 -9 -66 5 0 11 6 14 13 3 6 4 2 4 -9 -1 -12 -6 -20
-13 -17 -8 3 -12 -22 -13 -86 -2 -95 -1 -98 43 -81 16 6 27 6 31 0 4 -6 -2
-10 -12 -10 -28 -1 -57 -27 -61 -56 -2 -21 0 -25 12 -21 10 4 16 1 16 -8 0 -9
-6 -12 -15 -8 -14 5 -16 -7 -14 -86 1 -78 4 -90 16 -80 8 7 11 19 8 28 -4 13
-2 12 9 -1 7 -10 21 -18 30 -18 9 0 16 -4 16 -9 0 -5 -10 -8 -22 -7 -34 3 -53
-23 -57 -78 -2 -38 0 -47 10 -41 11 6 12 5 1 -6 -6 -7 -12 -33 -12 -58 0 -34
3 -42 10 -31 7 12 10 8 10 -15 0 -23 -3 -27 -10 -15 -7 10 -10 -14 -8 -80 3
-81 5 -95 20 -95 9 0 20 -4 25 -8 4 -5 3 -8 -2 -7 -32 7 -45 -1 -45 -28 0 -15
6 -34 13 -41 9 -11 9 -13 0 -7 -9 5 -13 0 -13 -16 0 -17 3 -19 9 -10 5 8 24
17 42 21 19 4 33 13 31 20 -1 7 2 10 7 6 6 -3 8 -12 5 -20 -7 -16 -39 -29 -53
-20 -5 3 -12 1 -16 -5 -4 -7 64 -10 204 -9 121 1 209 5 205 10 -3 5 -1 9 5 9
5 0 12 -6 14 -12 4 -10 8 -9 16 2 6 9 7 17 0 21 -6 3 -4 11 6 19 13 11 15 10
10 -3 -5 -12 1 -14 35 -11 26 3 39 0 35 -6 -3 -5 -19 -10 -35 -10 -16 0 -32
-4 -35 -10 -4 -6 18 -9 55 -9 55 1 62 4 81 31 12 16 23 27 26 24 3 -3 -2 -12
-11 -21 -24 -24 -11 -35 40 -35 32 0 44 4 44 15 0 19 16 20 23 2 8 -21 239
-24 256 -3 10 11 8 17 -11 30 -15 11 -18 16 -7 16 8 0 25 -7 37 -16 19 -13 26
-14 40 -3 13 11 13 9 -2 -8 -10 -13 -22 -20 -27 -18 -4 3 -10 1 -13 -4 -3 -5
45 -9 113 -10 77 -1 122 2 126 9 5 8 11 8 19 0 15 -12 166 -10 166 2 0 5 8 5
18 0 23 -12 502 -14 502 -1 0 5 5 9 11 9 5 0 7 -5 4 -10 -3 -6 -1 -10 4 -10 6
0 16 9 23 20 7 11 17 20 22 20 5 0 1 -9 -9 -20 -19 -21 -19 -21 21 -19 21 1
47 7 58 12 13 6 16 6 12 -2 -9 -14 0 -14 25 -1 13 7 19 7 19 0 0 -13 237 -14
245 0 4 6 12 7 22 1 11 -6 21 -4 31 5 18 18 33 18 26 -1 -5 -12 18 -14 160
-14 159 1 167 2 178 23 6 11 16 25 22 29 6 5 -2 6 -19 2 -23 -5 -27 -4 -19 5
16 16 47 9 50 -13 1 -9 -2 -15 -6 -12 -5 3 -14 -4 -20 -15 -10 -18 -8 -20 28
-20 21 0 44 6 51 12 11 11 13 11 7 0 -11 -19 44 -15 66 5 18 16 18 16 12 0 -5
-13 -1 -17 18 -17 13 0 30 6 37 12 11 10 13 10 7 1 -6 -10 12 -13 74 -13 48 0
79 4 75 9 -3 5 -1 13 5 16 6 4 9 1 8 -7 -2 -9 11 -13 47 -13 53 0 51 -3 54 61
1 17 6 20 32 16 20 -3 34 0 40 9 6 10 11 11 20 2 8 -8 8 -17 -2 -34 -8 -16 -9
-24 -1 -27 6 -2 8 -11 5 -20 -6 -15 -5 -15 10 -3 9 7 17 9 17 4 0 -5 57 -10
133 -11 72 -1 126 2 120 6 -9 6 -7 12 7 25 22 19 25 33 10 42 -14 9 -12 48 3
64 9 11 9 12 0 7 -7 -4 -22 -2 -34 5 -17 9 -23 8 -30 -2 -7 -11 -9 -10 -9 3 0
15 -4 16 -25 8 -14 -5 -25 -6 -25 -2 0 4 14 13 30 19 17 6 28 7 24 2 -3 -5 -1
-9 5 -9 5 0 18 -3 28 -6 16 -6 16 -5 -2 10 -11 10 -15 15 -8 12 7 -4 13 4 15
21 4 27 4 27 22 -12 10 -22 19 -51 20 -65 1 -18 7 -25 21 -25 14 0 21 -8 25
-30 5 -27 10 -31 40 -26 6 0 8 12 4 26 -5 19 -2 25 10 25 9 0 16 -5 16 -10 0
-6 6 -10 13 -9 23 4 47 -13 47 -35 0 -29 15 -52 24 -37 4 6 12 11 17 11 6 0 8
-4 4 -10 -3 -5 100 -9 276 -9 273 0 281 1 286 20 3 11 11 18 19 15 7 -3 15 3
18 12 2 9 4 4 3 -12 -1 -17 4 -31 12 -34 10 -3 12 1 8 19 l-6 24 18 -24 c10
-14 21 -19 24 -13 4 5 0 15 -8 22 -8 7 -15 20 -15 28 0 13 2 13 13 -3 13 -17
14 -17 20 4 5 21 27 30 27 11 0 -5 -4 -10 -10 -10 -5 0 -7 -7 -3 -16 3 -8 12
-13 19 -10 7 3 16 0 20 -6 4 -6 3 -8 -3 -5 -6 4 -19 0 -29 -8 -17 -12 15 -14
249 -14 173 -1 266 3 262 9 -3 6 -1 10 4 10 6 0 11 -4 11 -10 0 -6 48 -10 125
-10 l125 0 0 94 c0 66 -4 97 -13 105 -8 6 -17 8 -21 4 -4 -4 -4 0 -1 8 5 12 0
15 -22 14 -15 -1 -38 -5 -50 -9 -18 -6 -22 -4 -17 8 3 9 12 12 21 9 11 -4 14
-2 9 5 -12 19 -83 15 -90 -5 -6 -15 -8 -15 -17 -3 -8 12 -10 11 -8 -5 2 -33 0
-36 -15 -23 -10 9 -11 17 -4 25 6 7 8 14 4 14 -3 1 -10 3 -16 4 -5 1 -15 3
-22 4 -6 0 -8 4 -4 8 4 4 27 6 52 4 39 -2 46 0 51 18 3 12 9 21 15 21 5 0 5
-8 -1 -19 -9 -16 -7 -18 17 -15 15 1 35 -4 44 -13 17 -15 18 -15 18 0 0 10 5
17 10 17 6 0 10 -5 10 -12 0 -9 3 -9 11 -1 6 6 17 9 24 7 8 -3 13 4 13 20 0
14 -6 26 -12 26 -6 0 -4 5 4 10 10 7 11 12 4 18 -6 4 -14 16 -17 26 -6 16 -5
17 8 6 12 -10 15 -10 15 3 0 18 -27 30 -35 17 -10 -16 -25 -11 -19 5 4 8 17
18 30 21 13 3 24 13 24 21 0 9 -5 11 -12 7 -9 -5 -9 -2 1 9 16 20 1 23 -18 5
-11 -10 -14 -10 -18 0 -6 14 -33 16 -33 2 0 -5 7 -10 15 -10 9 0 12 -6 8 -16
-4 -11 -9 -12 -16 -5 -14 14 -40 14 -32 1 4 -6 11 -8 16 -5 5 3 6 0 4 -7 -3
-8 -18 -15 -33 -16 -23 -1 -24 0 -9 9 9 6 15 15 11 20 -3 6 2 16 12 23 13 10
14 15 4 21 -9 6 -11 4 -5 -5 5 -9 2 -10 -14 -5 -16 5 -20 3 -15 -9 5 -12 0
-16 -20 -16 -15 0 -29 7 -32 15 -4 8 -10 12 -16 9 -5 -3 -7 -13 -4 -21 5 -12
1 -14 -19 -9 -15 4 -25 2 -25 -4 0 -6 5 -8 12 -4 7 4 8 3 4 -5 -4 -6 -11 -9
-15 -7 -4 3 -13 1 -21 -4 -12 -7 -12 -12 -2 -22 9 -9 12 -9 12 3 0 9 12 15 32
16 17 1 35 8 40 15 5 9 8 9 8 1 0 -18 -29 -43 -44 -37 -8 3 -17 0 -22 -7 -4
-8 -3 -10 5 -5 6 4 14 0 17 -9 9 -22 -3 -30 -21 -15 -12 10 -19 10 -27 2 -7
-7 -16 -12 -22 -12 -5 0 -6 3 -3 7 4 3 -1 15 -10 26 -10 10 -17 21 -16 23 1 2
-1 13 -4 24 -7 26 -22 26 -20 1 0 -11 5 -17 9 -15 4 3 8 1 8 -5 0 -6 -16 -13
-35 -17 -37 -7 -42 -13 -24 -31 8 -8 7 -11 -2 -10 -8 0 -25 -1 -38 -1 -20 -2
-22 -4 -11 -17 10 -13 15 -13 21 -3 4 7 11 9 16 5 10 -11 -17 -27 -34 -20 -7
3 -13 0 -13 -6 0 -6 -5 -11 -11 -11 -8 0 -7 5 1 15 11 13 10 14 -3 10 -8 -4
-18 -1 -23 6 -5 9 -2 10 9 6 10 -3 17 -2 17 3 0 6 -17 8 -42 4 -34 -4 -39 -3
-25 6 9 6 15 16 11 21 -4 7 -10 6 -18 0 -10 -8 -13 -2 -13 24 0 31 3 35 26 35
28 0 52 12 54 26 1 5 8 8 15 8 6 -1 12 2 12 8 0 5 5 6 10 3 6 -3 10 4 10 17
-1 21 -2 22 -14 6 -14 -20 -36 -24 -36 -8 0 6 -7 10 -16 10 -8 0 -12 5 -8 11
4 8 9 8 17 0 14 -14 30 -14 22 -1 -3 6 1 7 9 4 9 -4 16 -1 16 6 0 7 6 10 14 7
8 -3 17 -1 20 6 2 7 5 5 5 -4 1 -9 8 -20 17 -23 23 -9 24 -8 17 12 -6 15 -5
15 11 3 9 -8 15 -20 12 -27 -3 -7 2 -18 9 -24 8 -7 12 -17 8 -22 -3 -6 0 -8 8
-6 8 3 13 10 12 15 -1 5 16 8 38 7 47 -2 53 14 6 18 -32 3 -33 4 -17 20 14 15
19 15 41 4 33 -17 79 -26 79 -15 0 5 -6 9 -12 10 -29 2 -51 8 -61 18 -6 6 -29
11 -50 11 -31 0 -38 -3 -33 -15 3 -8 1 -15 -4 -15 -6 0 -10 9 -10 21 0 19 5
20 63 17 34 -2 68 -8 75 -12 7 -4 12 -1 12 8 0 9 7 16 15 16 8 0 15 5 15 10 0
6 6 10 13 10 6 -1 1 -10 -12 -21 -18 -15 -21 -23 -13 -31 9 -9 12 -9 12 0 0 7
4 12 10 12 5 0 9 -5 7 -11 -1 -6 6 -13 16 -14 19 -4 24 20 5 29 -7 3 -2 4 12
3 17 -1 25 -8 24 -20 -1 -9 4 -17 12 -17 16 0 19 16 4 25 -5 3 -10 11 -10 17
0 6 3 8 6 5 4 -3 15 -2 25 3 12 7 19 6 22 -3 4 -9 6 -9 6 0 1 7 -8 18 -19 25
-11 7 -20 17 -20 21 0 5 9 5 20 2 31 -10 24 8 -12 28 -24 14 -28 15 -18 2 14
-17 14 -17 -18 -20 -16 -2 -21 2 -20 14 2 9 8 19 13 23 6 4 1 8 -10 9 l-20 0
20 9 c14 5 26 2 43 -13 18 -17 24 -18 35 -7 9 10 9 11 0 6 -16 -9 -16 -1 -1
24 14 22 12 25 -20 35 -22 6 -23 5 -13 -14 10 -17 9 -20 -4 -15 -17 7 -19 22
-6 43 8 12 12 13 25 1 14 -11 16 -10 10 5 -6 14 -4 16 7 10 8 -5 11 -4 6 0
-14 16 -41 14 -59 -4 -9 -11 -15 -21 -12 -24 3 -2 -7 -4 -20 -4 -14 0 -23 3
-20 8 3 5 0 9 -6 9 -6 0 -8 5 -4 11 5 8 8 8 14 0 8 -14 36 -5 43 13 7 17 -79
25 -143 12 -26 -5 -30 -4 -15 3 11 5 15 10 8 10 -22 2 -62 -22 -56 -32 4 -6 1
-7 -7 -2 -7 4 -16 2 -21 -6 -6 -10 -9 -7 -10 11 0 14 -3 20 -5 13 -3 -7 -13
-9 -22 -6 -15 6 -14 3 2 -15 16 -18 26 -21 64 -16 25 3 51 8 56 12 16 9 46 10
46 0 0 -4 -8 -8 -17 -9 -16 0 -16 -1 1 -8 11 -4 20 -15 22 -24 1 -10 -1 -15
-6 -12 -4 3 -10 -4 -13 -14 -4 -16 1 -18 34 -18 22 0 39 -4 39 -9 1 -5 7 -19
15 -31 14 -20 13 -21 -19 -21 -18 0 -39 4 -47 9 -10 6 -6 9 16 9 34 0 23 18
-16 25 -13 3 -29 11 -35 19 -6 9 -22 20 -37 25 -24 9 -26 8 -25 -20 1 -32 -11
-54 -13 -23 -1 10 -1 22 0 26 1 10 -13 10 -22 1 -4 -3 -2 -12 4 -20 6 -7 8
-13 4 -13 -4 0 -1 -8 6 -17 12 -15 12 -16 -3 -10 -12 4 -25 -3 -40 -24 -21
-26 -24 -27 -25 -9 -1 11 4 20 13 20 8 0 14 3 14 8 0 10 -41 35 -48 28 -3 -3
0 -6 7 -6 7 0 9 -4 6 -10 -3 -5 -10 -10 -15 -10 -10 0 -8 19 4 38 16 26 -3 23
-19 -2 -20 -29 -35 -34 -35 -10 0 10 -6 14 -15 11 -8 -4 -17 -2 -21 4 -4 6
-11 6 -20 -2 -12 -10 -13 -9 -8 4 3 8 13 18 22 22 13 5 13 8 4 14 -9 5 -11 17
-6 34 7 31 16 34 34 12 7 -8 16 -15 20 -15 13 0 8 49 -6 54 -19 7 -18 30 1 46
9 7 14 19 11 26 -3 7 1 18 9 24 7 6 12 20 10 30 -2 11 3 23 11 28 8 5 16 18
17 29 0 12 4 21 7 21 15 -1 50 16 50 24 0 6 -7 8 -14 5 -28 -11 -33 86 -6 103
8 6 10 10 4 10 -7 0 -12 15 -12 34 0 19 -3 47 -6 63 -3 15 -8 42 -11 58 -3 17
-7 41 -10 55 -4 14 -7 36 -9 50 -7 55 -18 107 -32 137 -8 17 -11 38 -8 47 3 9
2 16 -4 16 -5 0 -13 16 -16 35 -4 19 -14 41 -22 50 -14 13 -12 15 18 15 18 0
40 4 48 10 9 6 -5 8 -43 7 -31 -1 -57 1 -57 6 0 4 15 7 34 7 67 0 45 28 -24
31 -22 0 -23 1 -5 8 11 4 39 2 64 -6 44 -13 68 -10 42 6 -21 13 38 29 77 21
17 -4 32 -3 32 2 0 13 -52 30 -77 25 -13 -2 -23 0 -23 4 0 5 -10 9 -22 9 -18
0 -20 -2 -8 -10 12 -7 11 -9 -5 -9 -11 0 -45 -2 -75 -5 -45 -4 -56 -1 -68 15
-7 10 -10 24 -6 31 4 6 3 8 -3 5 -6 -4 -18 9 -27 28 -11 23 -24 35 -39 36 -17
1 -18 2 -4 6 10 3 14 10 10 16 -3 7 2 5 13 -4 31 -27 63 -33 185 -33 82 -1
115 2 112 10 -3 8 5 10 23 6 20 -4 25 -2 19 8 -5 9 -2 10 11 6 11 -3 25 -2 32
3 10 6 6 10 -15 14 -16 3 -32 1 -38 -6 -12 -15 -105 -23 -105 -9 0 5 -12 7
-27 5 -21 -3 -24 -2 -14 5 11 8 8 10 -12 9 -14 -1 -25 -6 -24 -11 1 -5 -4 -11
-10 -13 -7 -3 -13 2 -13 11 0 13 -5 14 -26 6 -16 -7 -23 -7 -19 0 4 6 -5 7
-23 4 -18 -4 -32 -1 -37 6 -4 7 -1 10 8 8 9 -2 17 2 19 7 2 6 -10 11 -26 13
-15 2 -26 0 -23 -5 3 -5 -3 -14 -14 -21 -16 -10 -19 -9 -19 6 0 10 -5 23 -12
30 -7 7 -9 12 -6 12 3 0 41 6 84 14 93 17 260 15 324 -4 25 -7 39 -15 33 -17
-7 -3 -13 -9 -13 -15 0 -7 14 -8 38 -5 29 5 46 1 77 -18 22 -13 34 -25 27 -25
-7 0 -11 -4 -8 -9 9 -14 -14 -18 -63 -10 -42 7 -130 -6 -118 -17 10 -10 197
-11 197 -1 0 7 4 7 12 -1 7 -7 22 -12 35 -12 l23 0 0 214 c0 196 -2 215 -17
219 -17 4 -17 5 0 6 22 1 23 38 0 63 -16 18 -16 18 0 12 12 -4 17 -1 17 10 0
12 -10 16 -37 16 -24 0 -33 3 -25 9 7 4 24 6 36 4 23 -5 24 -4 25 96 1 56 0
101 -3 101 -18 0 -56 -26 -56 -38 0 -12 -3 -12 -15 -2 -11 9 -15 9 -15 1 0 -8
-10 -7 -34 3 -18 8 -39 10 -46 6 -8 -5 -23 -2 -38 8 -13 9 -47 17 -74 18 -31
1 -56 8 -66 18 -15 15 -14 16 18 17 34 1 50 3 60 8 3 2 16 4 29 5 22 3 23 2 6
-11 -11 -7 -33 -14 -49 -14 -17 -1 0 -6 38 -11 38 -5 72 -6 75 -1 3 4 29 9 56
11 60 4 115 20 115 33 0 6 -9 8 -19 4 -11 -3 -50 -7 -88 -9 -37 -2 -74 -5 -82
-7 -7 -2 -15 1 -18 7 -2 6 32 20 82 33 47 13 85 25 85 28 0 8 -113 -8 -125
-17 -5 -4 -29 -13 -53 -20 -24 -6 -51 -14 -60 -17 -12 -4 -14 -3 -7 4 6 6 28
16 49 23 38 12 106 48 106 56 0 2 -12 -1 -26 -6 -14 -6 -43 -12 -63 -14 -21
-1 -43 -6 -48 -9 -21 -13 -138 -16 -152 -4 -11 9 -15 9 -18 0 -3 -7 -9 -13
-14 -13 -6 0 -7 5 -4 10 3 6 0 10 -7 10 -7 0 -2 10 12 21 l25 21 -34 -6 c-18
-3 -47 -6 -63 -6 -16 0 -27 -4 -23 -9 5 -9 -10 -9 -65 -1 -9 1 -4 6 10 11 17
5 6 6 -31 3 -34 -4 -65 -1 -78 5 -19 11 -20 14 -6 34 l14 22 -89 0 c-55 0 -93
-4 -101 -12 -9 -9 8 -11 76 -7 76 4 87 3 76 -10 -8 -10 -9 -16 -1 -21 21 -13
9 -20 -30 -17 -23 2 -47 -1 -55 -8 -21 -17 -94 -19 -88 -3 3 7 -7 15 -22 19
-21 5 -24 9 -13 16 9 7 7 8 -7 3 -11 -3 -38 -8 -60 -10 -40 -5 -40 -5 -12 8
l28 13 -45 19 c-32 13 -43 22 -36 29 7 7 13 7 18 1 17 -24 55 -36 93 -30 23 4
36 11 33 17 -4 6 -22 8 -40 5 -19 -3 -34 -2 -34 3 0 4 -8 6 -19 3 -10 -3 -22
0 -25 6 -4 6 -32 10 -64 10 -33 -1 -44 -4 -27 -6 49 -7 52 -21 9 -39 -43 -18
-241 -27 -247 -10 -4 11 -67 15 -67 4 0 -4 -8 -4 -17 -1 -27 11 12 20 76 18
70 -2 181 14 181 26 0 5 -5 9 -11 9 -5 0 -8 4 -4 9 8 14 -33 34 -53 26 -44
-17 -224 -49 -277 -50 -55 -1 -130 -18 -147 -34 -4 -4 8 -6 27 -6 19 1 32 -1
30 -4 -2 -4 14 -7 34 -7 21 -1 47 -6 57 -12 15 -9 7 -10 -36 -6 -30 3 -68 7
-85 9 -16 1 -37 5 -45 8 -23 10 -85 -8 -82 -23 2 -10 0 -11 -11 -2 -8 7 -16 9
-20 6 -9 -9 -60 106 -62 141 -1 18 -13 50 -26 71 -13 22 -23 40 -21 42 1 1 2
3 1 5 0 1 -2 49 -3 107 -1 87 -5 112 -24 145 -48 88 -120 142 -135 102z m581
-656 c-8 -3 -14 -13 -13 -22 2 -11 -3 -15 -14 -13 -20 5 -48 -12 -38 -23 5 -4
12 -1 17 7 8 13 10 12 10 -2 0 -14 16 -18 91 -24 63 -5 87 -10 75 -16 -25 -14
-19 -25 12 -22 106 12 133 11 128 -3 -4 -10 3 -13 24 -11 16 1 26 7 23 13 -3
5 0 4 7 -2 25 -23 -1 -28 -123 -26 -67 2 -137 3 -154 3 -45 0 -42 18 5 25 73
13 55 14 -113 8 -163 -5 -171 -4 -189 16 -15 17 -16 23 -6 36 15 18 68 33 130
36 25 1 55 6 68 11 17 6 21 5 16 -5 -4 -6 4 -2 16 10 13 12 28 19 34 16 5 -4
3 -9 -6 -12z m-849 -258 c29 -18 41 -34 41 -50 0 -13 4 -23 9 -23 13 0 32 26
24 33 -3 4 -1 8 5 8 33 4 37 6 34 19 -1 10 3 8 13 -4 8 -11 18 -34 21 -53 7
-38 21 -41 57 -13 l26 20 6 -20 c6 -18 9 -19 23 -8 13 11 14 11 8 0 -10 -17 3
-114 15 -106 5 3 9 16 9 28 0 13 7 29 15 36 12 10 13 6 9 -27 l-5 -38 14 30
c13 28 13 27 11 -35 -2 -64 -16 -146 -28 -157 -10 -10 -7 32 5 65 6 17 9 43 7
59 -3 25 -5 22 -20 -24 -10 -28 -15 -59 -12 -67 3 -9 1 -23 -5 -30 -7 -8 -11
-25 -10 -38 4 -49 -1 -78 -15 -78 -16 0 -32 -33 -18 -38 6 -2 5 -19 0 -45 -5
-23 -11 -58 -14 -77 l-4 -35 19 40 c11 22 20 48 20 58 1 9 5 17 10 17 5 0 1
-26 -9 -57 -10 -32 -15 -72 -13 -90 3 -17 0 -39 -6 -50 -8 -14 -9 -9 -4 22 10
63 -19 29 -40 -47 -10 -35 -22 -76 -28 -93 -6 -16 -17 -51 -24 -77 -11 -40
-11 -46 1 -41 19 7 37 41 29 53 -3 5 6 44 21 86 16 43 30 72 32 66 2 -7 -4
-33 -14 -58 -12 -32 -14 -48 -6 -52 7 -5 3 -23 -13 -56 -13 -27 -21 -54 -19
-60 3 -7 -2 -31 -10 -54 -9 -23 -12 -50 -9 -59 5 -12 3 -14 -8 -8 -12 7 -12 6
-1 -7 11 -14 11 -24 -2 -63 -19 -53 -19 -58 -7 -50 10 5 -1 -44 -14 -65 -3 -5
-1 -10 5 -10 13 0 8 -47 -8 -77 -6 -11 -14 -44 -18 -74 -8 -68 9 -57 37 23 10
29 18 45 19 35 0 -9 -11 -45 -25 -79 -25 -61 -34 -138 -16 -138 12 0 6 -77 -9
-115 -13 -35 -6 -43 20 -20 17 16 20 16 20 2 0 -9 -4 -19 -10 -22 -5 -3 -10
-15 -10 -25 0 -10 -8 -24 -17 -29 -16 -9 -10 -13 13 -10 11 1 22 -24 17 -38
-3 -7 -10 -13 -15 -13 -6 0 -8 7 -4 15 3 8 1 15 -4 15 -6 0 -10 -4 -10 -9 0
-4 -11 -6 -24 -4 -18 4 -22 10 -20 29 2 20 0 23 -11 14 -8 -6 -11 -18 -8 -26
4 -12 0 -14 -22 -8 -21 5 -27 4 -23 -7 3 -9 17 -13 41 -11 21 1 37 -2 37 -7 0
-6 -7 -8 -15 -5 -8 4 -15 1 -15 -5 0 -13 -28 -4 -52 17 -16 13 -19 12 -36 -8
-13 -16 -21 -20 -26 -12 -4 7 -1 12 8 12 16 0 22 15 9 23 -5 2 -3 3 4 1 6 -1
14 0 18 4 4 4 10 7 13 8 4 0 19 6 35 14 34 16 36 34 2 26 -19 -5 -23 -3 -19 9
4 11 2 13 -9 9 -8 -3 -17 -14 -20 -25 -3 -11 -14 -19 -25 -19 -11 0 -22 -7
-24 -17 -2 -11 -16 -17 -48 -20 -30 -2 -51 -11 -62 -24 -13 -16 -18 -17 -18
-6 0 8 10 21 23 30 22 15 22 15 -8 13 -16 -1 -34 -4 -40 -7 -5 -3 -21 6 -35
19 -25 25 -25 25 -1 12 12 -6 32 -10 42 -7 10 3 19 1 19 -4 0 -4 7 -6 15 -3 8
4 15 12 15 19 0 8 15 19 33 26 24 8 33 18 35 36 2 21 -1 22 -18 13 -14 -8 -20
-8 -20 0 0 6 -10 10 -22 9 -13 -1 -36 3 -52 10 -22 9 -32 9 -42 0 -12 -10 -13
-9 -8 5 4 10 1 16 -7 16 -9 0 -10 3 -3 8 17 11 24 40 11 45 -7 2 -4 3 6 2 9
-2 17 3 17 10 0 10 -21 13 -51 6 -12 -3 -49 -43 -49 -53 0 -6 11 -2 23 11 21
19 26 20 36 7 8 -9 8 -16 2 -20 -6 -4 -8 -13 -4 -21 4 -11 1 -13 -11 -9 -9 3
-13 10 -10 15 3 5 0 9 -5 9 -6 0 -11 -7 -11 -16 0 -11 -6 -13 -19 -9 -14 4
-21 0 -26 -15 -3 -11 -11 -20 -17 -20 -7 0 -7 5 1 14 9 11 8 15 -5 20 -25 10
-34 7 -34 -9 0 -17 -16 -20 -24 -6 -4 5 0 12 6 15 7 3 -8 4 -34 1 -26 -2 -50
0 -53 5 -3 5 -18 5 -34 0 -23 -6 -29 -5 -24 5 5 14 -11 21 -72 28 -26 4 -27 5
-9 11 20 7 20 9 5 40 -15 30 -19 32 -45 25 -23 -7 -27 -6 -18 3 7 7 12 17 12
22 0 6 -4 5 -8 -2 -5 -7 -16 -10 -25 -6 -9 3 -15 9 -12 14 2 4 -11 6 -31 4
-23 -1 -34 1 -31 9 2 7 23 12 51 11 35 -1 46 3 42 13 -7 17 -1 17 17 -2 13
-12 14 -10 13 15 -2 34 -11 46 -22 29 -4 -8 -3 -10 4 -5 7 4 12 2 12 -3 0 -13
-3 -13 -24 -5 -9 3 -13 10 -10 15 3 5 0 9 -5 9 -6 0 -11 6 -11 14 0 8 -6 16
-12 19 -7 3 -3 4 8 4 14 -1 20 -6 17 -14 -6 -16 48 -14 59 2 5 6 8 6 8 -2 0
-8 7 -10 18 -6 13 5 11 0 -7 -20 -14 -15 -19 -27 -13 -27 7 0 12 5 12 11 0 5
5 7 10 4 6 -3 10 0 10 7 0 21 27 54 36 45 5 -4 2 -13 -6 -18 -12 -9 -12 -10 3
-5 10 3 25 0 33 -8 18 -19 18 -32 -1 -16 -15 12 -55 5 -55 -10 0 -5 -12 -13
-27 -18 l-28 -10 33 -1 c17 -1 32 4 32 9 0 6 5 10 11 10 8 0 8 -4 0 -14 -10
-11 -7 -17 11 -30 22 -16 22 -16 1 -16 -12 0 -24 -6 -27 -12 -3 -7 -4 -4 -3 7
1 15 -4 20 -23 21 -41 2 -59 -10 -25 -16 25 -4 29 -10 27 -29 -2 -14 0 -21 7
-17 7 4 8 1 5 -8 -8 -22 12 -20 26 2 11 16 11 16 6 0 -3 -12 0 -18 9 -18 8 0
15 -4 15 -10 0 -5 -5 -10 -11 -10 -5 0 -8 -4 -5 -8 3 -4 42 -9 87 -10 77 -2
81 -2 76 18 -4 16 0 20 19 20 26 0 30 10 12 28 -7 7 -17 8 -30 1 -11 -6 -18
-6 -18 0 0 5 14 14 30 20 17 5 30 15 30 20 0 23 16 10 18 -15 1 -16 -2 -23 -9
-19 -6 4 -5 -2 2 -13 7 -12 15 -19 18 -17 2 3 9 1 15 -4 7 -6 16 -4 24 5 11
12 9 14 -8 14 -11 0 -20 4 -20 10 0 5 14 7 30 5 17 -2 30 1 30 6 0 5 -16 9
-35 9 -29 0 -33 3 -24 13 9 10 20 10 45 3 18 -6 31 -13 29 -16 -2 -3 17 -4 42
-4 48 1 70 19 51 41 -13 17 -31 17 -22 1 5 -10 4 -10 -6 -1 -9 9 -22 8 -51 -2
-26 -10 -39 -11 -39 -3 0 6 -11 8 -27 5 -16 -3 -49 -2 -75 2 -41 7 -46 6 -43
-10 3 -15 0 -17 -21 -9 -13 5 -24 6 -24 1 0 -10 -31 -24 -38 -17 -2 3 3 12 11
21 9 8 14 22 11 30 -7 18 7 19 26 2 12 -10 12 -9 0 6 -12 16 -11 19 8 24 12 3
20 8 18 12 -3 4 -1 13 5 21 7 13 9 13 9 0 0 -12 2 -13 9 -1 7 11 10 9 16 -8 3
-12 10 -19 15 -16 16 10 184 13 201 4 14 -7 16 -5 12 11 -3 11 -9 17 -14 14
-5 -3 -9 -1 -9 5 0 5 4 12 9 15 5 3 11 15 14 26 3 11 1 18 -4 14 -5 -3 -9 1
-9 9 0 8 -7 17 -14 20 -11 4 -13 1 -10 -11 5 -16 5 -16 -5 0 -7 11 -20 15 -36
12 -14 -2 -25 0 -25 6 0 11 17 13 63 10 19 -1 27 3 27 15 0 10 -5 13 -12 9 -8
-5 -9 2 -5 25 6 29 5 32 -13 26 -11 -4 -20 -2 -20 4 0 5 9 13 20 16 11 3 20
11 20 17 0 6 -9 8 -20 5 -25 -6 -27 9 -2 17 9 3 5 4 -10 2 -15 -2 -25 1 -22 5
3 5 12 9 20 9 17 0 19 16 2 22 -15 5 -167 3 -188 -3 -8 -2 -14 1 -13 7 2 11
-31 13 -62 4 -22 -6 -34 1 -29 15 4 8 1 15 -5 15 -6 0 -11 -5 -11 -11 0 -6 -7
-9 -15 -6 -8 4 -17 2 -21 -4 -4 -7 -10 -7 -18 0 -7 6 -23 9 -36 6 -30 -6 -38
-15 -13 -15 11 0 26 -7 33 -15 7 -9 20 -13 30 -10 32 10 122 8 129 -4 4 -6 19
-11 34 -11 15 0 38 0 51 0 13 0 27 -7 30 -15 6 -18 2 -18 -42 -6 -21 7 -32 6
-32 -1 0 -7 -4 -7 -12 -1 -7 5 -22 9 -33 9 -11 -1 -25 4 -31 9 -19 18 -77 12
-80 -9 -1 -10 -6 -21 -10 -24 -4 -4 -4 1 -1 10 4 13 -2 18 -26 23 -18 4 -38
12 -44 17 -9 7 -13 7 -13 -2 0 -9 -4 -9 -13 -2 -8 7 -18 7 -27 2 -8 -5 -19 -6
-25 -4 -5 3 -1 -2 9 -10 23 -18 5 -22 -26 -5 -15 8 -19 8 -14 0 5 -8 -9 -9
-46 -5 -29 4 -65 7 -81 7 -15 0 -26 5 -23 11 2 6 10 10 17 8 37 -9 91 -8 104
2 13 9 11 11 -12 12 -16 1 -67 4 -115 7 -77 5 -88 3 -88 -11 0 -13 -5 -12 -19
7 -13 17 -20 20 -26 11 -6 -9 -9 -9 -16 1 -7 12 -9 12 -9 0 0 -8 -6 -11 -16
-7 -9 3 -25 0 -36 -8 -20 -14 -20 -14 2 -26 12 -6 19 -14 16 -17 -3 -3 -12 -1
-19 5 -8 7 -18 8 -22 4 -5 -4 -5 -1 -1 6 10 16 -26 16 -42 0 -10 -10 -14 -8
-18 10 -4 12 -13 22 -21 22 -8 0 -11 -5 -7 -11 8 -14 -14 -29 -44 -29 -13 0
-21 -4 -18 -8 3 -5 -1 -9 -9 -9 -8 0 -15 5 -15 11 0 5 -6 3 -12 -6 -9 -11 -20
-13 -38 -8 -21 7 -22 8 -4 9 24 1 74 23 74 33 0 8 -27 4 -36 -5 -13 -13 -61
-7 -61 7 0 9 8 13 24 10 13 -3 23 1 23 7 0 7 10 9 25 7 14 -3 28 -2 31 3 2 4
11 6 19 2 9 -3 21 -1 28 5 14 12 86 24 131 22 16 0 37 2 48 6 15 4 17 9 7 20
-10 12 -14 12 -25 -3 -8 -11 -13 -13 -14 -5 0 7 -14 12 -32 13 -25 1 -28 3
-13 7 27 9 30 32 5 32 -11 0 -20 -4 -20 -10 0 -5 -8 -10 -17 -9 -13 0 -14 2
-4 6 11 5 11 7 0 15 -12 7 -11 9 1 7 36 -4 80 2 80 10 0 5 -37 9 -82 9 -52 0
-76 -3 -67 -9 8 -5 22 -9 32 -9 18 0 18 -1 1 -17 -17 -17 -16 -18 17 -24 26
-4 30 -7 17 -13 -10 -5 -16 -11 -13 -15 2 -4 -20 -7 -49 -7 -30 1 -52 -2 -49
-6 8 -14 -5 -9 -21 8 -15 14 -16 14 -16 -2 0 -14 -7 -16 -50 -11 -32 4 -52 2
-56 -5 -5 -7 -2 -9 8 -6 8 4 21 2 29 -3 10 -6 4 -9 -19 -9 -20 0 -31 -4 -27
-10 3 -5 -1 -10 -9 -10 -9 0 -16 -4 -16 -10 0 -14 11 -12 30 5 15 14 18 13 29
-12 10 -26 10 -27 -4 -9 -8 11 -16 17 -16 13 -1 -4 -3 -11 -4 -17 -1 -5 -3
-15 -4 -21 0 -7 -12 0 -25 14 -14 15 -27 23 -31 18 -3 -5 1 -12 7 -14 10 -4 9
-8 -2 -16 -12 -8 -16 -5 -20 17 l-5 27 -18 -25 c-15 -22 -22 -21 -18 4 1 5 -6
3 -15 -5 -12 -9 -15 -9 -10 -1 4 6 3 12 -3 12 -5 0 -13 -4 -16 -10 -3 -5 -28
-10 -55 -10 -40 0 -48 3 -44 15 4 8 13 15 21 15 8 0 11 -4 8 -10 -3 -5 3 -10
15 -10 13 0 19 4 14 11 -4 8 0 8 15 0 14 -8 21 -8 21 -1 0 5 7 10 15 10 21 0
19 17 -5 30 -23 12 -27 35 -5 26 8 -3 14 0 12 7 -1 7 6 12 15 12 9 0 20 4 24
8 4 4 -5 7 -19 7 -15 0 -27 -4 -27 -10 0 -5 -4 -10 -10 -10 -5 0 -7 7 -4 15 7
17 3 18 -20 9 -9 -3 -16 -13 -16 -21 0 -9 -5 -11 -12 -6 -7 4 -22 6 -33 4 -20
-3 -20 -3 0 12 11 9 24 13 29 10 5 -4 6 -2 3 4 -7 11 -66 5 -84 -9 -9 -7 -13
-6 -13 3 0 8 -5 6 -13 -6 -11 -15 -22 -17 -56 -11 -41 6 -41 6 -35 -21 4 -16
3 -24 -2 -20 -5 5 -9 14 -9 20 0 7 -12 12 -27 13 -15 1 -25 -3 -22 -8 3 -4 11
-5 17 -2 7 4 7 1 -1 -7 -11 -12 -15 -11 -27 5 -8 11 -20 16 -30 12 -9 -3 -18
0 -21 9 -5 11 -11 12 -24 5 -10 -6 -21 -10 -23 -10 -7 0 5 50 14 55 4 3 6 12
3 20 -3 8 2 44 11 80 9 37 13 79 10 98 -6 31 -5 34 17 31 13 -1 25 -3 28 -4
17 -5 111 -1 121 5 8 5 10 4 5 -4 -6 -8 0 -10 18 -5 15 3 26 2 26 -4 0 -13
-36 -19 -99 -17 -29 1 -51 -2 -51 -8 0 -6 -3 -7 -6 -4 -10 10 -44 -12 -44 -28
0 -8 5 -15 11 -15 6 0 8 7 5 16 -3 8 -2 13 2 10 4 -2 14 -1 22 4 8 5 24 3 41
-5 14 -8 29 -11 32 -8 4 3 12 1 19 -4 14 -12 78 -5 78 7 0 16 32 19 47 5 15
-16 126 -19 117 -3 -3 4 -12 8 -20 8 -8 0 -14 5 -14 10 0 6 -15 10 -32 10 -23
0 -29 -3 -19 -9 10 -6 10 -10 2 -16 -7 -4 -20 2 -30 14 -10 12 -26 21 -35 21
-10 0 -14 5 -10 11 3 6 15 9 25 6 11 -3 17 -2 14 3 -7 12 20 20 35 10 10 -6
10 -9 -1 -12 -8 -3 -2 -3 13 -1 14 2 30 -1 34 -8 5 -9 9 -8 14 6 5 14 18 19
56 21 34 2 44 0 34 -6 -8 -5 -28 -10 -45 -11 -26 0 -27 -2 -10 -9 11 -5 14 -9
7 -9 -7 -1 -10 -6 -7 -11 3 -6 17 -7 30 -4 12 3 26 1 29 -5 5 -7 -5 -11 -26
-12 -30 -2 -28 -2 12 -10 25 -4 57 -11 73 -14 17 -5 27 -3 27 4 0 6 -15 12
-32 12 -27 1 -23 3 17 10 62 11 187 20 161 13 -14 -5 -16 -8 -6 -14 7 -5 -11
-7 -41 -5 -31 2 -62 -1 -70 -7 -10 -7 -7 -8 14 -4 18 4 27 2 27 -6 0 -14 48
-16 69 -4 6 4 18 5 26 2 8 -3 15 -1 15 5 0 6 6 7 13 2 6 -4 23 -6 37 -5 23 1
23 1 5 -7 -15 -7 -8 -9 30 -9 43 0 46 1 20 8 -34 9 -24 11 57 15 31 2 61 6 67
9 20 13 12 29 -11 23 -12 -4 -28 -1 -36 5 -10 9 -16 8 -24 -3 -8 -11 -9 -10
-4 5 4 11 1 23 -6 28 -9 6 -2 8 20 5 21 -2 31 0 29 7 -3 6 6 11 19 11 13 0 22
-5 20 -11 -2 -6 17 -10 54 -10 33 0 54 4 48 8 -7 3 31 7 83 7 52 0 115 3 142
6 47 6 59 -3 33 -24 -8 -7 -15 -8 -18 -2 -1 5 -11 3 -22 -5 -19 -14 -19 -14 3
-14 14 0 20 -4 16 -12 -4 -7 0 -5 8 5 8 9 20 17 27 17 10 0 9 -4 -1 -17 -12
-15 -12 -16 3 -10 9 3 22 -1 28 -9 9 -10 9 -14 1 -14 -6 0 -11 5 -11 11 0 6
-5 7 -12 2 -7 -4 -21 -8 -30 -9 -10 -1 -25 -2 -33 -3 -20 -1 -15 -23 10 -38
27 -17 35 -16 35 3 0 11 -6 14 -20 9 -11 -3 -20 -2 -20 3 0 5 24 8 52 8 46 -1
53 2 53 18 0 11 6 21 14 24 9 3 11 0 6 -8 -5 -9 0 -8 14 3 23 16 51 13 51 -5
0 -5 -9 -7 -19 -3 -11 3 -22 2 -25 -3 -3 -5 10 -8 28 -7 20 0 33 -4 33 -12 0
-7 -11 -13 -24 -13 -12 0 -23 -3 -23 -7 0 -10 49 -14 70 -7 13 4 13 6 0 14
-11 7 -12 10 -2 10 7 0 11 4 7 9 -3 5 -1 12 4 15 5 4 13 2 16 -4 5 -8 12 -7
23 2 13 11 15 11 8 -2 -7 -13 -6 -13 6 0 16 19 78 21 71 3 -3 -7 0 -13 6 -13
6 0 11 4 11 8 0 4 17 9 37 10 27 2 46 11 65 33 29 31 36 45 17 33 -7 -4 -7 1
1 16 11 20 10 22 -4 17 -20 -8 -31 10 -16 28 9 11 5 14 -27 17 -53 4 -43 23
11 19 27 -1 47 2 52 10 4 7 2 15 -4 17 -7 2 -10 7 -8 11 12 19 13 58 3 58 -32
-1 -48 4 -42 12 3 5 -3 11 -12 14 -15 3 -14 6 7 15 25 11 25 11 -7 11 -35 1
-83 20 -83 33 0 4 26 8 58 9 l57 1 -40 13 c-22 8 -31 14 -20 14 12 1 15 4 10
10 -13 12 -185 20 -185 8 0 -4 5 -5 10 -2 6 3 10 1 10 -4 0 -6 -12 -11 -27
-11 -22 0 -25 2 -13 10 11 7 8 10 -16 10 -17 0 -43 10 -58 21 -22 18 -31 19
-49 11 -20 -11 -20 -11 6 -6 22 5 26 3 21 -9 -4 -12 -11 -14 -29 -7 -13 5 -25
6 -28 3 -3 -2 -14 0 -24 7 -16 10 -16 10 5 5 16 -5 22 -2 22 10 0 10 -5 13
-12 9 -6 -4 -8 -3 -5 2 3 6 68 8 161 6 97 -2 156 0 156 6 0 7 -137 13 -305 13
-5 0 -22 -3 -36 -6 -15 -4 -45 0 -70 9 -28 11 -33 15 -14 11 43 -8 39 -8 165
4 168 17 181 18 172 10 -4 -4 -16 -9 -27 -12 -11 -3 1 -5 27 -6 26 0 50 4 54
11 4 6 3 8 -2 5 -6 -3 -16 -1 -24 4 -13 9 -13 10 0 6 8 -2 27 0 43 4 16 5 25
4 22 -2 -13 -20 93 -15 114 6 14 13 12 15 -16 15 -19 0 -33 6 -37 16 -5 13 -2
15 13 11 14 -3 18 -1 14 9 -3 8 -9 11 -14 8 -5 -3 -9 0 -9 6 0 7 7 9 16 6 43
-16 61 -17 67 -2 4 9 2 16 -3 16 -6 0 -5 8 2 20 16 26 2 39 -16 14 -13 -17
-14 -17 -9 8 3 14 13 28 22 31 23 6 23 38 -1 45 -24 6 -23 15 7 50 25 30 35
56 13 34 -19 -19 -33 -14 -17 6 33 41 38 58 30 101 -1 2 -7 -2 -15 -8 -16 -14
-69 -4 -60 11 3 5 27 8 52 7 37 -3 48 1 60 19 20 30 61 28 111 -5z m821 -123
c7 -3 45 -6 104 -8 42 -2 47 -4 36 -17 -10 -12 -10 -15 4 -15 9 0 16 4 16 10
0 5 11 9 24 8 19 -2 22 -5 15 -15 -6 -6 -17 -9 -25 -6 -8 3 -14 1 -14 -5 0 -6
-9 -8 -20 -5 -11 3 -33 -5 -52 -18 -18 -13 -34 -23 -35 -21 -2 2 -33 12 -70
23 -45 12 -69 15 -73 8 -9 -13 -61 -8 -77 8 -19 17 -16 22 10 15 19 -5 20 -3
9 10 -18 23 7 31 31 10 16 -14 17 -14 12 0 -5 13 0 17 22 20 29 3 74 2 83 -2z
m841 -31 c17 -9 72 -14 197 -19 6 0 12 -4 12 -8 0 -5 -27 -8 -59 -8 -58 1 -59
0 -40 -17 10 -10 19 -22 19 -27 0 -5 8 -7 18 -4 9 3 6 -1 -8 -9 -16 -10 -29
-12 -36 -6 -12 10 -42 8 -62 -5 -7 -4 -26 -9 -43 -11 -26 -4 -30 -1 -27 18 2
18 11 23 48 28 34 4 41 7 27 13 -10 5 -37 6 -60 2 -31 -5 -38 -4 -27 4 13 9
12 11 -5 9 -11 -1 -29 -1 -40 0 -19 2 -19 3 -3 15 21 15 13 26 -18 26 -17 0
-22 -4 -18 -15 4 -9 0 -15 -9 -15 -31 0 -29 31 3 42 23 8 109 -1 131 -13z
m-537 -7 c2 -4 29 -7 60 -7 31 1 56 -2 56 -6 0 -4 12 -9 27 -11 18 -2 29 -10
31 -22 3 -16 0 -18 -22 -12 -22 5 -26 3 -26 -15 0 -18 -2 -19 -15 -9 -18 15
-20 -1 -3 -18 9 -9 3 -12 -30 -12 -24 0 -42 -5 -42 -11 0 -6 7 -9 15 -6 8 4
17 2 20 -4 4 -5 -2 -12 -12 -16 -15 -6 -12 -8 12 -13 25 -4 30 -10 30 -33 0
-15 -3 -27 -7 -27 -5 0 -19 0 -33 0 -19 0 -23 4 -18 18 4 9 11 20 17 24 6 4
-4 8 -22 8 -29 0 -32 -2 -22 -19 13 -26 13 -30 -5 -27 -33 5 -39 24 -14 45 15
13 19 20 10 21 -11 0 -9 5 5 22 10 12 14 18 7 15 -6 -4 -14 -3 -17 2 -3 5 1
11 9 15 8 3 12 12 9 21 -4 9 -1 15 7 15 8 1 -3 9 -25 19 -25 12 -34 20 -25 24
12 5 11 7 -1 16 -13 9 -13 11 2 11 9 0 19 -3 22 -8z m298 -101 c-3 -21 2 -33
18 -44 20 -14 22 -22 18 -66 l-5 -49 46 -12 c108 -28 146 -43 175 -73 l31 -31
-32 19 c-18 11 -33 22 -33 26 0 3 -11 4 -25 1 -14 -2 -25 0 -25 5 0 5 -7 10
-15 10 -18 0 -19 -9 -3 -25 6 -6 9 -14 6 -17 -3 -4 -22 8 -41 24 -19 17 -43
31 -53 31 -15 0 -13 -4 9 -18 15 -9 27 -20 27 -24 0 -4 18 -17 39 -28 50 -25
63 -43 21 -29 -16 6 -30 15 -30 20 0 5 -3 8 -7 7 -14 -2 -47 14 -71 36 -22 19
-34 21 -158 19 -122 -1 -153 4 -124 22 6 4 18 1 26 -6 12 -10 13 -9 8 5 -7 19
-18 20 -45 6 -24 -13 -25 -40 -1 -41 9 -1 4 -5 -13 -10 -22 -6 -17 -7 23 -3
44 4 52 2 52 -12 0 -11 -6 -15 -20 -11 -11 3 -18 2 -15 -3 3 -4 -2 -11 -11
-14 -13 -5 -14 -9 -4 -21 7 -8 8 -15 3 -15 -16 0 -32 22 -26 36 3 9 -1 14 -12
14 -9 0 -13 -4 -10 -10 8 -13 -16 -13 -51 1 l-28 10 19 -23 c15 -16 8 -14 -24
10 -24 17 -49 28 -55 25 -7 -4 -6 -8 2 -11 7 -2 10 -8 7 -13 -4 -5 1 -6 10 -3
17 7 62 -32 50 -44 -3 -3 -9 -1 -13 5 -4 6 -22 14 -40 18 -24 5 -33 3 -38 -9
-3 -8 -12 -12 -19 -9 -11 4 -12 8 -2 18 7 7 15 11 20 8 4 -2 7 1 7 8 0 7 -10
9 -25 7 -13 -3 -22 -1 -19 3 3 5 14 9 25 9 28 0 23 17 -7 24 -28 8 -94 -10
-94 -25 0 -5 -3 -8 -7 -8 -22 4 -32 -3 -27 -16 7 -17 -31 -22 -41 -5 -3 6 -2
10 4 10 6 0 8 6 5 14 -6 15 48 36 93 36 12 0 25 5 28 10 4 6 10 8 15 5 5 -3
18 0 29 7 17 10 23 9 39 -9 12 -15 26 -20 39 -17 11 3 24 1 27 -5 4 -6 17 -11
29 -10 21 0 21 1 3 8 -18 7 -16 9 14 19 39 14 35 22 -15 29 -23 3 -44 -1 -60
-11 -21 -14 -24 -14 -36 0 -9 11 -24 15 -49 11 -22 -3 -40 1 -48 9 -7 8 -28
14 -47 14 -19 0 -37 5 -41 11 -4 8 1 9 16 4 14 -4 20 -3 16 3 -3 6 9 12 28 14
19 2 32 0 30 -4 -3 -5 33 -6 80 -2 47 3 102 1 123 -5 33 -9 36 -8 20 4 -17 12
-14 13 27 12 25 -1 46 -6 46 -11 0 -5 6 -3 14 3 10 8 16 9 21 1 3 -5 39 -10
79 -10 l73 0 5 84 c5 73 12 106 22 106 1 0 1 -13 -2 -29z m-3106 -303 c-24
-13 -19 -25 11 -33 18 -4 23 -9 15 -14 -7 -4 -10 -15 -6 -24 5 -14 0 -17 -25
-17 -20 0 -31 -5 -31 -14 0 -18 -31 -29 -90 -31 -25 -1 -67 -5 -95 -9 -27 -3
-44 -3 -37 0 9 4 10 10 3 18 -5 6 -11 25 -13 41 -2 23 1 30 17 33 17 3 18 1 5
-8 -12 -9 -10 -10 10 -4 13 4 44 8 68 9 24 1 47 6 50 11 4 5 23 10 44 11 31 2
37 -1 42 -23 6 -23 8 -23 22 -9 9 9 13 19 10 23 -4 3 -11 0 -16 -8 -8 -12 -10
-11 -11 5 -1 11 -1 26 0 34 2 7 -1 11 -6 8 -4 -2 -17 -1 -28 3 -13 5 -4 7 28
7 33 0 43 -3 33 -9z m610 -210 c-5 8 0 12 16 12 18 0 20 -2 8 -10 -13 -9 -13
-10 0 -11 8 0 4 -4 -10 -8 -14 -4 -24 -13 -22 -20 1 -7 -1 -10 -6 -7 -5 3 -44
-1 -88 -9 -75 -13 -185 -12 -207 2 -6 4 -7 1 -2 -6 5 -9 1 -12 -11 -10 -11 1
-27 -1 -36 -5 -33 -15 -43 1 -12 17 17 9 34 13 38 10 3 -4 6 -2 6 4 0 6 10 9
23 6 22 -5 22 -5 2 10 -26 21 -34 21 -57 0 -14 -13 -19 -14 -16 -4 2 8 -8 17
-22 21 -14 4 38 7 115 6 80 -1 143 -5 147 -11 5 -6 8 -5 8 3 0 6 5 12 11 12 5
0 7 -4 4 -10 -10 -16 62 -12 77 4 10 11 16 11 27 2 12 -8 13 -8 7 2z m528 -5
c30 4 34 2 25 -9 -9 -11 -8 -14 4 -14 9 0 18 4 21 9 3 5 35 8 70 7 35 0 62 3
59 8 -3 5 0 6 8 4 8 -3 22 -1 32 4 18 9 25 -6 7 -17 -24 -15 -9 -31 26 -27 24
3 34 1 30 -6 -3 -6 -49 -11 -109 -11 -56 -1 -140 -2 -187 -3 -78 -2 -150 14
-150 33 0 3 -12 6 -27 5 -14 0 -28 5 -31 13 -4 12 8 13 71 7 50 -4 78 -3 82 4
5 8 10 8 20 0 7 -6 29 -9 49 -7z m-1710 -115 c1 -7 10 -28 19 -45 13 -25 16
-46 11 -90 -7 -68 -38 -156 -61 -175 -12 -9 -15 -9 -9 0 4 6 2 12 -3 12 -6 0
-11 -6 -11 -14 0 -7 -10 -20 -22 -29 -22 -14 -21 -15 24 -12 68 5 88 13 82 33
-4 12 -3 14 3 4 8 -10 12 -10 23 3 11 13 8 19 -11 17 -8 -1 33 122 42 126 5 2
6 9 4 15 -2 7 4 28 13 47 13 26 23 34 39 32 14 -2 23 3 26 15 9 41 19 -84 11
-140 l-9 -62 -50 -17 c-27 -9 -44 -17 -37 -18 6 0 12 -5 12 -11 0 -6 -7 -9
-15 -5 -8 3 -19 -3 -25 -13 -8 -16 -7 -18 12 -13 16 4 19 2 13 -8 -6 -9 -4
-11 6 -5 21 14 50 13 45 0 -2 -7 1 -19 7 -26 10 -11 9 -11 -5 -1 -12 10 -18
10 -23 1 -6 -8 -9 -8 -15 1 -9 14 -60 16 -180 6 -70 -5 -73 -5 -45 9 l30 14
-32 -6 c-27 -4 -33 -2 -33 12 0 11 5 15 15 11 8 -3 29 1 47 9 l33 15 -49 -3
c-47 -2 -50 -1 -58 28 -9 31 -4 137 7 168 4 9 11 17 17 17 5 0 7 -4 3 -9 -3
-5 -1 -13 5 -16 6 -4 9 -1 8 7 -2 10 15 12 80 11 45 -1 82 1 82 6 0 12 -36 19
-95 19 -90 0 -95 1 -89 16 4 9 20 12 56 10 60 -3 55 10 -7 15 -5 1 15 14 45
30 59 30 60 30 64 9z m824 -649 c-2 -6 3 -14 11 -17 8 -3 11 0 7 7 -5 7 -1 9
9 5 8 -4 15 -11 14 -18 -3 -24 1 -37 11 -31 6 4 8 11 5 16 -4 5 -2 9 3 9 6 0
12 -7 16 -15 3 -9 0 -15 -9 -15 -8 0 -15 -6 -15 -12 0 -8 -3 -9 -8 -3 -14 19
-99 26 -113 9 -6 -8 -15 -11 -20 -8 -5 3 -9 0 -9 -7 0 -15 -41 -51 -49 -43 -3
4 -1 9 6 11 21 8 2 34 -19 27 -16 -5 -19 -2 -14 13 4 14 1 19 -14 20 -13 1
-18 -2 -14 -9 4 -7 2 -8 -4 -4 -8 5 -10 -2 -5 -25 l6 -32 -54 6 c-30 4 -58 7
-62 7 -5 0 -5 5 -2 10 4 6 10 8 15 5 4 -3 13 2 20 10 7 8 17 12 24 8 19 -13
31 -9 41 12 10 20 65 34 65 17 0 -10 47 -8 58 2 5 5 -22 10 -40 7 -4 0 -12 9
-18 22 -11 21 -10 21 4 3 12 -15 16 -16 17 -5 0 10 2 10 6 2 2 -7 14 -13 24
-13 11 0 17 5 14 10 -4 6 -11 8 -16 5 -5 -4 -9 -1 -9 4 0 14 11 14 35 -2 26
-16 75 -22 75 -8 0 6 -6 11 -12 11 -9 0 -8 4 2 10 19 12 21 12 18 -1z m577
-39 c-3 -5 0 -10 8 -10 8 0 14 -8 13 -17 0 -10 5 -17 12 -15 22 4 27 4 55 3
15 0 27 -5 27 -11 0 -6 -3 -9 -7 -9 -22 4 -33 -2 -28 -13 4 -7 0 -5 -8 5 -15
19 -32 24 -21 6 3 -6 -8 -4 -24 5 -40 21 -68 22 -50 2 7 -8 16 -12 19 -10 3 2
6 -4 6 -12 0 -8 -6 -13 -14 -10 -16 7 -93 -23 -93 -35 0 -5 5 -9 10 -9 6 0 10
4 10 9 0 5 8 8 18 6 9 -1 16 -8 14 -15 -1 -6 2 -8 8 -5 18 11 92 16 85 6 -6
-11 31 -25 44 -16 5 3 12 1 16 -4 3 -6 13 -8 23 -4 9 3 2 -4 -15 -16 -18 -11
-33 -25 -33 -31 0 -7 -6 -8 -19 -1 -12 7 -30 7 -52 1 -44 -13 -82 -13 -74 0 3
5 0 7 -9 4 -9 -3 -17 2 -21 16 -5 16 -12 19 -27 14 -17 -5 -20 -3 -15 10 4 10
3 15 -3 11 -6 -3 -10 -12 -10 -20 0 -7 -10 -17 -21 -20 -16 -6 -18 -9 -8 -15
7 -5 17 -6 21 -4 4 3 8 0 8 -6 0 -5 -13 -9 -29 -8 -16 1 -27 6 -24 12 4 5 -6
6 -23 2 -16 -4 -32 -13 -36 -19 -6 -9 -8 -9 -8 0 0 16 -50 -8 -50 -24 0 -7 -2
-13 -4 -13 -2 0 -13 -3 -23 -6 -16 -5 -17 -5 -1 6 17 11 14 40 -4 40 -6 0 -5
-6 2 -15 17 -20 -7 -20 -46 0 -20 10 -30 11 -35 3 -4 -6 -12 -7 -19 -3 -9 5
-11 4 -6 -3 5 -8 -1 -12 -14 -12 -17 0 -20 4 -15 20 6 20 -9 28 -19 11 -3 -4
-17 -6 -30 -4 -17 4 -23 10 -19 21 5 12 1 12 -19 -4 -18 -13 -22 -20 -12 -22
8 -2 14 -8 14 -12 0 -5 -12 -5 -27 2 -16 6 -47 14 -70 18 -36 6 -44 4 -49 -12
-3 -10 -10 -18 -15 -18 -6 0 -6 7 0 19 9 16 8 18 -9 14 -11 -3 -18 -10 -17
-17 2 -10 -3 -10 -30 -4 -23 5 -63 -16 -63 -33 0 -11 -7 -19 -16 -19 -9 0 -12
5 -8 12 5 8 1 9 -12 5 -18 -7 -18 -7 0 7 10 8 15 20 11 26 -5 8 -13 5 -27 -9
-10 -12 -23 -19 -28 -16 -6 4 -7 -2 -3 -12 6 -16 5 -16 -10 -4 -9 7 -14 17
-11 22 3 5 0 9 -5 9 -6 0 -11 -8 -12 -17 0 -10 -3 -13 -5 -7 -6 13 -44 7 -44
-7 0 -5 3 -9 8 -10 43 -4 67 -10 76 -20 8 -8 5 -10 -11 -4 -14 4 -23 2 -23 -4
0 -6 11 -11 25 -11 14 0 28 0 32 -1 4 0 9 5 12 12 2 7 -1 9 -8 5 -6 -4 -11 -2
-11 4 0 6 12 10 28 9 15 -1 45 2 67 6 22 5 48 8 58 7 9 0 15 3 12 8 -3 5 0 12
6 16 7 4 9 3 5 -4 -3 -6 1 -18 10 -26 14 -15 13 -17 -15 -22 -17 -4 -31 -10
-31 -14 0 -5 8 -6 19 -3 10 3 22 0 25 -6 7 -10 -14 -16 -39 -11 -5 1 -50 3
-100 5 -112 5 -117 6 -111 21 3 7 -2 10 -14 7 -11 -3 -16 -11 -13 -19 3 -8 -1
-14 -8 -14 -17 0 -40 14 -42 26 -1 5 -7 9 -14 10 -6 1 -9 -4 -7 -11 5 -13 -45
-28 -95 -29 -13 -1 -26 -7 -29 -15 -3 -10 1 -12 18 -8 17 4 20 3 12 -5 -6 -6
-37 -13 -69 -14 -55 -3 -57 -2 -33 12 23 14 23 14 3 9 -14 -4 -23 -2 -23 5 0
7 -6 8 -19 0 -25 -13 -34 -13 -26 0 10 16 -21 12 -35 -5 -17 -20 -30 -19 -30
3 0 13 -2 14 -9 3 -5 -8 -19 -12 -35 -9 -14 3 -23 1 -20 -3 3 -5 0 -9 -5 -9
-6 0 -11 10 -11 21 0 18 -2 20 -15 9 -13 -11 -13 -15 -3 -22 8 -6 4 -7 -12 -2
-14 3 -27 8 -29 10 -7 6 11 24 25 24 8 0 40 12 70 26 30 14 64 24 74 21 24 -6
54 24 40 41 -7 9 -7 9 2 2 7 -5 20 -10 31 -10 10 0 15 -4 12 -10 -3 -5 -15
-10 -26 -10 -11 0 -22 -7 -26 -16 -3 -8 -12 -13 -19 -10 -7 3 -16 1 -18 -3 -3
-5 18 -12 47 -15 28 -4 59 -9 67 -10 9 -1 22 -6 29 -11 11 -6 13 -3 9 13 -4
15 -2 19 8 15 8 -3 20 -1 27 5 6 5 27 12 46 14 l35 5 -23 -18 c-21 -17 -21
-18 -1 -16 11 1 20 5 20 10 0 4 4 5 10 2 6 -4 7 1 3 10 -7 20 16 38 33 24 7
-6 17 -2 29 11 20 22 13 39 -8 22 -8 -7 -17 -9 -20 -5 -4 3 -13 0 -22 -7 -10
-8 -15 -9 -15 -2 0 17 40 36 41 20 0 -7 4 -3 9 10 5 12 14 22 20 22 6 0 8 5 4
12 -5 8 -11 6 -20 -6 -6 -9 -21 -18 -33 -19 -11 -1 -23 -7 -26 -15 -3 -7 -10
-10 -17 -6 -8 5 -9 2 -4 -12 4 -10 4 -15 0 -11 -4 4 -14 2 -21 -5 -11 -9 -16
-9 -23 1 -5 9 -22 12 -54 8 -28 -4 -44 -2 -41 3 4 6 15 10 26 10 10 0 19 5 19
10 0 6 7 10 15 10 8 0 15 6 15 14 0 11 7 13 29 6 19 -5 33 -4 40 3 16 16 14
27 -4 21 -10 -4 -15 0 -15 11 0 12 -6 16 -18 13 -11 -3 -19 0 -19 7 0 10 7 11
23 5 12 -5 25 -6 29 -2 3 4 11 -1 16 -10 11 -19 39 -14 39 7 0 9 13 13 38 13
20 -1 50 4 65 11 35 14 37 14 37 1 0 -5 -9 -10 -19 -10 -11 0 -27 -7 -35 -16
-9 -8 -16 -11 -16 -5 0 7 -10 9 -27 5 -33 -8 -46 -18 -49 -39 -3 -23 13 -18
19 6 5 17 9 19 26 9 15 -7 27 -8 40 -1 23 13 47 -10 37 -34 -3 -9 -2 -13 4
-10 6 3 10 13 10 21 0 8 5 14 10 14 6 0 5 6 -2 14 -7 7 -19 11 -25 9 -7 -3
-13 0 -13 7 0 8 9 10 27 5 32 -8 33 -8 51 -6 15 1 6 21 -9 21 -6 0 -7 -5 -3
-12 5 -7 3 -8 -5 -4 -18 12 18 49 42 42 12 -3 21 3 27 17 7 17 9 18 9 5 1 -10
6 -18 12 -18 8 0 7 -5 -1 -15 -8 -10 -21 -13 -34 -9 -12 4 -18 3 -14 -1 4 -4
3 -15 -1 -24 -7 -12 -4 -16 14 -17 14 -1 27 6 34 20 10 17 11 17 6 2 -6 -19
-5 -19 13 -3 10 9 22 14 26 10 4 -4 11 -1 16 7 6 9 10 10 10 3 0 -6 -10 -19
-22 -27 -16 -11 -18 -16 -8 -17 8 -1 27 -3 43 -5 15 -1 27 1 27 5 0 5 14 14
30 21 17 7 30 16 30 21 0 15 -20 10 -42 -11 -23 -21 -38 -26 -38 -12 0 5 11
14 25 20 28 13 34 32 10 32 -23 0 -18 16 5 17 11 1 18 -2 15 -7 -3 -5 -1 -11
5 -15 5 -3 10 -1 10 5 0 6 4 9 9 5 5 -3 12 -1 15 4 4 5 2 12 -4 16 -5 3 -10
10 -10 16 0 5 8 4 19 -2 11 -8 16 -19 13 -32 -4 -17 -3 -18 18 -7 16 9 25 9
33 1 14 -14 47 -14 47 -1 0 6 -9 10 -19 10 -26 0 -51 10 -51 21 0 5 3 8 8 8
19 -3 25 2 12 11 -13 8 -12 10 4 10 13 0 17 -5 13 -20 -3 -11 -2 -20 3 -20 4
0 11 12 14 26 6 21 10 24 19 15 9 -9 8 -14 -3 -21 -8 -5 -12 -10 -8 -10 3 0
15 -3 25 -6 13 -4 14 -3 5 4 -10 7 -5 11 20 17 36 8 35 8 61 19 10 5 23 3 31
-3 9 -8 17 -8 20 -2 3 5 1 11 -6 13 -8 3 -6 7 5 11 10 4 16 2 14 -6 -1 -7 7
-12 18 -12 11 0 33 -13 48 -29 21 -21 31 -26 40 -17 6 6 25 11 42 12 24 0 26
2 10 8 -10 4 -32 3 -48 -3 -24 -9 -31 -8 -43 9 -13 18 -13 20 0 23 9 2 16 7
16 12 0 13 29 20 36 8 4 -7 3 -8 -4 -4 -6 3 -16 -2 -21 -13 -16 -29 -14 -30
18 -18 17 6 28 14 26 17 -2 3 0 12 6 20 7 13 9 12 9 -2 0 -21 20 -28 41 -15 9
6 25 7 35 2 11 -4 32 -9 47 -10 25 -2 26 -2 10 11 -17 12 -16 13 5 7 12 -3 22
-10 22 -16 0 -6 3 -7 6 -4 4 4 1 14 -7 23 -13 16 -11 17 26 11 30 -5 35 -4 22
4 -17 10 -15 29 4 29 6 0 7 -4 4 -10z m121 -257 c-8 -19 10 -34 31 -26 18 7
16 21 -4 27 -10 2 -7 4 7 3 15 -2 24 -8 22 -16 -2 -11 3 -10 22 3 31 20 36 20
36 1 0 -19 18 -19 39 -1 14 11 21 11 46 0 l30 -14 -35 1 c-42 2 -106 -22 -77
-28 15 -4 16 -7 5 -21 -10 -12 -10 -14 0 -8 6 4 12 3 12 -2 0 -10 -37 -23 -73
-27 -12 -1 -16 3 -12 14 3 11 0 9 -11 -4 -15 -18 -16 -18 -10 -2 3 11 4 23 1
28 -6 9 -55 -10 -55 -21 0 -4 -11 -6 -25 -5 -18 2 -25 -2 -25 -13 -1 -16 -2
-16 -14 0 -8 11 -20 15 -34 11 -16 -4 -22 -1 -22 11 0 10 4 15 8 12 4 -2 8 4
9 14 1 14 -3 17 -15 13 -15 -6 -15 -5 -3 10 10 13 17 14 26 7 10 -8 24 -5 51
10 21 11 44 20 51 20 7 0 13 5 13 10 0 6 3 10 6 10 3 0 3 -8 0 -17z m-338 -9
c6 -12 18 -15 36 -12 15 3 29 1 32 -4 4 -6 10 -5 14 2 4 7 15 10 25 7 9 -4 14
-10 11 -15 -2 -4 3 -8 13 -8 13 0 17 6 13 20 -5 18 -4 18 10 5 14 -12 14 -16
1 -31 -8 -9 -21 -14 -29 -11 -8 3 -14 0 -14 -7 0 -6 5 -8 10 -5 6 3 10 1 10
-4 0 -6 -16 -11 -36 -11 -31 0 -35 2 -24 15 10 12 8 15 -12 20 -29 6 -55 2
-69 -12 -14 -14 -3 -33 19 -33 13 0 14 2 4 9 -11 7 -10 9 3 14 9 4 14 3 11 -2
-9 -13 16 -29 49 -32 30 -2 85 15 85 26 0 4 -6 3 -12 -1 -10 -5 -10 -4 -1 6 6
7 16 9 22 6 13 -9 3 -36 -14 -36 -8 0 -17 -6 -21 -12 -4 -7 -4 -10 1 -6 4 4
13 1 19 -8 13 -17 50 -9 39 9 -4 6 -1 7 6 3 7 -5 10 -14 7 -22 -6 -15 6 -19
18 -7 15 15 71 10 89 -8 22 -23 43 -24 55 -3 8 15 10 14 16 -2 4 -10 4 -15 0
-11 -4 4 -13 2 -19 -3 -7 -6 -31 -12 -54 -15 -22 -2 -45 -6 -51 -10 -5 -3 -10
-2 -10 4 0 5 -10 13 -21 16 -28 9 -44 -14 -21 -31 14 -11 15 -15 4 -26 -7 -7
-13 -8 -12 -3 5 22 -1 27 -15 15 -8 -7 -12 -17 -8 -23 3 -5 2 -8 -3 -4 -5 3
-18 -1 -28 -9 -17 -12 -15 -13 19 -9 33 5 36 3 25 -10 -8 -10 -17 -12 -22 -7
-6 6 -19 7 -30 4 -15 -4 -17 -7 -6 -13 10 -7 9 -9 -4 -9 -10 0 -18 -5 -18 -11
0 -7 -7 -8 -17 -4 -10 4 -25 7 -33 7 -31 -1 -70 10 -65 18 3 5 16 5 30 0 24
-9 26 -8 24 6 0 4 5 10 12 15 8 4 10 11 5 16 -4 4 -12 0 -17 -9 -9 -17 -41
-19 -38 -2 2 8 58 54 67 54 2 0 1 -7 -2 -16 -5 -14 -4 -15 9 -4 18 15 34 5 18
-11 -6 -6 -9 -18 -6 -26 3 -8 0 -13 -7 -11 -19 4 -23 -19 -5 -25 10 -4 16 0
17 11 2 31 4 37 16 58 6 12 8 25 4 30 -4 5 2 1 14 -9 28 -23 30 -22 43 14 14
41 14 42 -4 35 -8 -3 -15 -1 -15 4 0 6 -5 10 -11 10 -5 0 -8 -3 -6 -7 3 -5 -6
-16 -19 -26 -27 -20 -32 -14 -9 9 8 9 15 21 15 27 0 8 -3 8 -9 -1 -7 -12 -56
-42 -68 -42 -7 0 20 25 42 38 13 8 15 12 5 11 -38 -4 -71 2 -65 11 3 6 -1 7
-9 4 -21 -8 -21 -24 0 -24 8 0 12 -5 9 -10 -4 -6 -12 -7 -18 -3 -9 5 -8 2 0
-8 10 -13 10 -16 -2 -16 -8 0 -15 4 -15 9 0 5 -7 2 -15 -6 -12 -12 -20 -13
-34 -4 -14 8 -24 7 -44 -7 -15 -10 -24 -22 -20 -29 4 -7 1 -6 -9 1 -8 7 -17
12 -19 10 -2 -1 1 3 8 9 7 6 9 15 5 19 -4 5 -2 6 3 2 6 -3 17 -2 25 3 12 8 13
13 2 30 -7 11 -10 20 -8 20 2 0 12 3 21 6 11 5 16 2 15 -7 -5 -30 1 -35 30
-31 18 2 29 9 27 16 -3 6 -8 10 -13 9 -5 0 -15 5 -22 13 -15 16 -8 18 17 5 9
-5 23 -6 29 -2 20 12 -35 32 -66 25 -15 -4 -34 -12 -42 -19 -21 -18 -64 -30
-56 -16 4 6 16 11 26 11 10 0 22 5 26 11 3 6 26 20 50 31 24 10 44 25 44 33 0
27 -12 44 -27 38 -11 -4 -14 -2 -9 5 11 17 44 15 54 -4z m828 -99 c8 -8 12
-15 7 -16 -53 -4 -80 -12 -90 -26 -9 -11 -13 -12 -13 -4 0 8 -6 11 -15 7 -8
-3 -15 -1 -15 4 0 16 -25 0 -43 -28 -18 -27 -18 -27 -11 -2 4 14 11 27 15 28
5 2 9 8 9 13 0 12 -98 8 -118 -5 -7 -4 -12 -4 -11 1 4 22 -3 25 -17 7 -8 -10
-13 -13 -9 -6 11 21 -22 13 -36 -9 -9 -13 -20 -18 -31 -14 -10 4 -15 12 -11
18 4 6 1 7 -8 1 -20 -12 -39 -14 -39 -3 0 5 5 9 10 9 6 0 28 8 49 18 28 14 54
18 102 15 35 -2 82 -5 104 -6 22 -1 51 3 65 10 30 15 85 9 106 -12z"/>
<path d="M3007 1513 c-4 -3 -7 -13 -7 -22 0 -9 -6 -27 -13 -41 -8 -14 -19 -48
-26 -75 -14 -59 -39 -116 -57 -130 -14 -11 -23 -110 -11 -121 4 -4 7 -3 7 2 0
6 7 19 15 30 13 17 14 15 9 -31 -5 -48 -5 -49 10 -25 18 29 21 80 5 80 -6 0 0
14 13 32 13 18 37 75 55 128 18 52 36 94 40 93 4 -1 9 15 10 35 l2 37 -18 -40
c-10 -22 -25 -46 -34 -54 -9 -7 -14 -17 -11 -22 9 -16 -30 -131 -48 -140 -14
-7 -18 -6 -18 6 0 8 4 15 8 15 11 0 30 55 37 110 3 25 12 50 20 56 19 15 35
58 26 72 -4 7 -10 9 -14 5z"/>
<path d="M2378 1349 c-7 -5 -21 -6 -31 -3 -11 3 -32 -5 -52 -20 -40 -30 -50
-33 -40 -8 4 12 1 11 -15 -5 -21 -24 -36 -31 -25 -13 4 7 -38 9 -124 8 -72 -2
-131 -6 -131 -9 0 -13 40 -40 50 -34 6 4 18 1 26 -6 13 -10 17 -10 25 2 7 11
9 11 9 0 0 -11 3 -11 15 -1 8 7 22 10 30 6 8 -3 15 -1 15 5 0 6 7 3 16 -6 9
-9 23 -14 31 -11 31 12 93 18 110 11 36 -16 53 -15 53 1 0 12 4 14 13 7 6 -5
23 -7 37 -3 l25 7 -30 8 c-16 5 -45 9 -62 9 -41 1 -43 16 -3 17 17 1 36 2 43
3 6 1 18 -3 26 -8 12 -9 13 -8 6 4 -6 11 -4 11 11 -2 16 -14 27 -15 59 -8 21
5 43 6 48 3 6 -4 7 -1 2 6 -5 8 -19 11 -40 7 -19 -4 -36 -2 -40 4 -3 6 -10 8
-15 5 -4 -3 -6 3 -3 13 5 20 -16 25 -39 11z"/>
<path d="M5074 3089 c-83 -45 -166 -108 -158 -121 5 -7 2 -8 -5 -3 -8 4 -25
-4 -44 -23 -18 -16 -48 -32 -67 -36 -19 -3 -44 -7 -55 -9 -12 -2 -32 -11 -45
-20 -14 -9 -54 -20 -89 -26 -36 -6 -67 -15 -71 -21 -4 -6 -15 -8 -25 -4 -13 5
-16 4 -11 -4 4 -7 1 -12 -8 -12 -9 0 -16 5 -16 10 0 6 -12 10 -27 10 -27 -1
-27 -1 7 -16 21 -9 47 -13 65 -9 17 3 41 5 55 5 14 -1 49 2 78 5 39 5 52 10
48 20 -5 15 36 29 74 26 33 -4 36 -8 23 -30 -11 -17 -8 -19 28 -23 42 -4 53 6
17 15 l-22 6 23 20 c19 16 27 18 47 9 17 -8 28 -8 35 -1 7 7 -1 13 -27 18 -27
5 -34 9 -24 15 8 5 18 6 23 3 5 -3 32 -7 60 -9 140 -9 155 -12 181 -35 14 -12
43 -29 63 -37 112 -42 124 -45 156 -35 l32 9 0 102 0 103 -63 28 c-34 15 -72
37 -85 48 -26 25 -80 53 -100 53 -8 0 -40 -14 -73 -31z"/>
</g>
</svg>
